# xmcd CD database file
#
# Track frame offsets:
#	150
#	15120
#	29616
#	49237
#	70030
#	88455
#	104712
#	123537
#	138733
#
# Disc length: 2060 seconds
#
# Revision: 1
# Processed by: cddbd v1.5.2PL0 Copyright (c) Steve Scherf et al.
# Submitted via: CDex 1.51
#
DISCID=82080a09
DTITLE=Craig Leach&Joe After Trio - Craig Leach&Joe After Trio
DYEAR=2008
DGENRE=Jazz
TTITLE0=Bye bye Blackbird
TTITLE1=Autumn Leaves
TTITLE2=My Funny Valentine
TTITLE3=Summertime
TTITLE4=The Way You Look Tonight
TTITLE5=Mr. Bojangles
TTITLE6=When I Fall In Love
TTITLE7=It Don't Mean a Thing
TTITLE8=Let It Be
EXTD=YEAR: 2008
EXTT0=
EXTT1=
EXTT2=
EXTT3=
EXTT4=
EXTT5=
EXTT6=
EXTT7=
EXTT8=
PLAYORDER=
